<svg width="300" height="299" xmlns="http://www.w3.org/2000/svg">
 <g>
  <title>Layer 1</title>
  <g id="svg_22">
   <ellipse stroke="null" ry="148.14867" rx="148" id="svg_21" cy="149.21747" cx="150.32308" fill="#ffffff"/>
   <g transform="matrix(0.276855 0 0 0.276855 0 0)" id="svg_12" fill="#221f20">
    <path id="svg_13" d="m511.70379,1035.88049c-54.6,-2.8 -114.6,-17.2 -168.5,-40.3c-10.4,-4.5 -39.3,-19.2 -51.9,-26.5c-21.8,-12.5 -45.5,-29.3 -69.6,-49.2c-14.9,-12.3 -48.1,-45.3 -60.2,-60c-18.7,-22.8 -37.5,-49.4 -48,-68c-1.4,-2.5 -4,-7 -5.8,-10c-9.2,-15.6 -22.5,-44.6 -31.6,-68.9c-14.9,-40.1 -24.7,-82.2 -29.1,-126.1c-2.4,-24.1 -2.4,-75.2 0.1,-96.5c6.3,-55.3 16.4,-95.2 35.8,-142.5c9.4,-22.8 28.8,-60.4 36.4,-70.7c1.3,-1.7 2.4,-3.4 2.4,-3.8c0,-2.5 31,-44.5 43.5,-59c7.7,-8.8 43.1,-44.6 49,-49.5c1.7,-1.4 7.1,-5.9 12,-10.1c21.1,-17.6 51.5,-38.3 76.2,-51.8c49.8,-26.9 98,-43.8 154.7,-54c30.2,-5.5 44,-6.5 86.1,-6.5c35.3,0 39.4,0.2 58.5,2.7c67.9,8.8 125.3,27.7 185.3,60.9c8.5,4.7 35.1,21.9 49.3,32c35,24.6 87,77.2 109.4,110.3c1.9,2.8 3.6,5.2 4,5.5c1,0.8 13.3,19.9 20,31c6.4,10.6 24.5,45.6 27,52c1.4,3.7 2.5,6.4 6,14.5c3.5,8.2 9.5,24.4 12.4,34c5.8,18.6 6.6,21.2 8.6,29.3c5.8,23.1 10,47.5 13.5,77.7c1.9,17.1 1.4,84.1 -0.9,102c-3.1,25.3 -8.3,52.7 -14.6,77c-3.5,13.6 -14.7,46.4 -19.4,56.7c-0.8,1.8 -3.3,7.6 -5.6,12.8c-29.3,67.6 -77.5,131.6 -135.6,180.1c-13.6,11.4 -36.2,28 -49.6,36.4c-6.7,4.3 -13.5,8.6 -14.9,9.5c-6.5,4.5 -54.2,29 -56.4,29c-0.4,0 -5.2,2 -10.8,4.4c-21.5,9.4 -61.8,21.5 -90.1,27.1c-15.7,3.1 -47.6,7.2 -65.1,8.3c-16.1,1.1 -43.3,1.2 -62.5,0.2zm145.2,-272.2c0.2,-7.9 0.2,-30.4 0,-50l-0.3,-35.7l-14.7,-0.3l-14.7,-0.3l0,-70.2c-0.1,-38.7 0,-70.3 0.1,-70.3c0.5,0 25.4,42.4 34.6,59c1.1,1.9 6.8,11.7 12.6,21.8l10.7,18.2l58.4,0l5.4,-9.2c3,-5.1 13,-22.3 22.2,-38.3c22.9,-39.5 28.3,-48.7 29.4,-50.5c0.6,-1 1,23.3 1,69.3l0.1,70.7l-29,0l0,100l164,0l0,-100l-29,0l0,-226l29,0l-0.2,-50.7l-0.3,-50.8l-137.9,0l-14.3,24c-18.5,31 -55.9,93.4 -63.1,105.3c-4.4,7.3 -5.8,9 -6.8,8c-0.6,-0.7 -8.5,-13.9 -17.4,-29.3c-8.9,-15.4 -21.8,-37.4 -28.5,-49c-6.7,-11.5 -17.2,-29.5 -23.3,-40l-11.1,-19l-68.8,0.3c-37.8,0.1 -69.4,0.4 -70,0.7c-1,0.3 -1.3,11.3 -1.3,50.5l0,50l30,0l0,226l-30,0l0,-100l-15.7,-0.1c-8.7,-0.1 -16.9,-0.2 -18.2,-0.3c-2.4,-0.1 -3.1,-2.2 -16,-43.1c-7.5,-23.7 -14.6,-46.5 -15.9,-50.5c-3.5,-11.3 -23.8,-75.6 -28.7,-91c-2.4,-7.4 -5.7,-17.8 -7.3,-23c-1.7,-5.2 -9.7,-30.2 -17.7,-55.5c-8.1,-25.3 -15.8,-49.6 -17.2,-54c-1.4,-4.4 -2.8,-8.4 -3.3,-8.8c-0.4,-0.5 -25,-0.8 -54.6,-0.7c-41.2,0 -54.1,0.3 -55,1.3c-1.3,1.3 -8.1,20.4 -14.4,40.2c-2.3,7.2 -4.5,13.9 -5,15c-0.9,2 -25.2,76.2 -25.6,78c-0.1,0.6 -1.2,3.7 -2.3,7c-3.1,8.6 -21,62.9 -23.1,70c-1,3.3 -3.6,11.2 -5.8,17.5c-2.1,6.3 -5.6,16.9 -7.7,23.5c-2.1,6.6 -4.1,12.5 -4.4,13c-0.3,0.6 -0.6,1.2 -0.6,1.5c0,0.3 -0.6,1.9 -1.2,3.5c-0.6,1.7 -2.6,7.7 -4.3,13.5c-1.7,5.8 -3.8,12.5 -4.8,15c-0.9,2.5 -1.8,5.4 -1.9,6.4c-0.2,1.1 -1,3.3 -1.8,5c-0.9,1.6 -1.7,4.1 -2,5.6c-0.2,1.4 -1.1,4.3 -1.8,6.5l-1.4,4l-16.6,0.3l-16.7,0.2l-0.1,7.8c0,4.2 -0.3,26.7 -0.5,50l-0.6,42.2l75.1,0.1c41.3,0 77.2,0.1 79.9,0.1l4.7,0.1l0.3,-50.2l0.2,-50.1l-9.2,-0.1c-11.8,-0.2 -12.5,-0.3 -13.2,-1c-0.3,-0.3 1.4,-6.4 3.8,-13.5l4.3,-12.9l46.9,-0.3l46.9,-0.2l4.7,14l4.6,14l-22.8,0l0,100l78.8,0.1c43.3,0.1 79.5,0 80.6,-0.1c1,-0.1 2.9,0.1 4.2,0.4l2.4,0.6l0,99l162.9,0l0.3,-14.2z"/>
    <path id="svg_14" d="m506.70379,729.28049l0,-37.4l30,0l0,-252l-30,0l0,-75.1l60.1,0.3l60.1,0.3l7.7,13.5c12,20.7 28.9,49.9 32.5,56c1.9,3 10.9,18.6 20.1,34.5c24.2,41.9 26.9,46.5 27.5,46.5c0.3,0 1.2,-1.2 2.1,-2.8c0.9,-1.5 8.5,-14.2 17,-28.2c26.7,-43.9 44.5,-73.6 45.9,-76.5c0.3,-0.6 5.8,-9.9 12.3,-20.7c6.4,-10.8 11.9,-20.3 12.2,-21.1c0.5,-1.2 9.4,-1.4 59.8,-1.3l59.2,0.1l0.3,37.3l0.2,37.2l-29,0l0,251.9l14.3,0.3l14.2,0.3l0,74l-138,0l0,-31.5c0,-17.3 0.2,-34.1 0.3,-37.2l0.4,-5.8l29.8,0l0,-101.7c0,-86.2 -0.2,-101.4 -1.4,-99.8c-0.7,1.1 -8.5,14.4 -17.3,29.5c-22.4,38.6 -54.4,93.5 -58,99.5l-2.9,5l-21.6,0.3l-21.6,0.2l-11.6,-20.1c-6.4,-11 -11.6,-20.3 -11.6,-20.6c0,-0.3 -0.8,-1.7 -1.8,-3.1c-1.1,-1.5 -3.3,-5.2 -4.9,-8.2c-1.7,-3 -5.4,-9.5 -8.3,-14.5c-3,-4.9 -6.1,-10.3 -7,-12c-2.1,-3.9 -6.6,-11.9 -10,-17.5c-6.7,-11.2 -14.4,-24.7 -19.1,-33.2c-1.8,-3.2 -3.5,-5.8 -4,-5.8c-0.4,0 -0.7,45.3 -0.6,100.8l0.2,100.7l15,0.5l15,0.5l0.3,35.9c0.1,24 -0.1,36.3 -0.8,37c-0.7,0.7 -23.4,1.1 -69,1.3l-68,0.2l0,-37.5zm124,-4.9l0,-17.5l-11.9,0c-6.5,0 -13.3,-0.3 -15,-0.6l-3.1,-0.6l0,-281.8l3.4,0c3.3,0 3.7,0.4 10.4,11.8c11.7,19.7 44.2,75.4 70.5,120.7c13.6,23.7 25.3,43.4 25.8,43.9s4.6,1.2 9.2,1.4l8.3,0.4l40.9,-69.8c22.4,-38.5 46,-78.8 52.3,-89.6c11.4,-19.4 11.7,-19.8 14.9,-19.8l3.3,0l0,282.7l-4.6,0.7c-2.6,0.3 -9.1,0.6 -14.5,0.6l-9.9,0l0,35l100,0l0,-35l-6.7,0c-3.8,0 -10.5,-0.3 -15.1,-0.7l-8.2,-0.6l0.2,-143.6l0.3,-143.6l3,-1.5c2.1,-1.1 6.3,-1.5 14.5,-1.6l11.5,0l0,-35.9l-14.5,-0.3c-8,-0.2 -27.6,0 -43.7,0.3l-29.2,0.7l-24.7,41.7c-13.6,22.9 -35.9,60.1 -49.5,82.6l-24.7,41l-7.2,0l-48.4,-83l-48.4,-83l-44.1,-0.3l-44.1,-0.2l0,37l28.7,0l0.6,14.3c0.4,7.8 0.7,73 0.7,144.8l0,130.6l-6.7,0.6c-3.8,0.4 -10.5,0.7 -15,0.7l-8.3,0l0,35l99,0l0,-17.5zm-515.3,-58.2c-0.4,-0.3 -0.7,-17 -0.7,-36.9l0,-36.3l15.3,-0.3l15.2,-0.3l6.4,-19.5c3.5,-10.7 7,-21.1 7.7,-23c0.7,-1.9 7.2,-21.7 14.5,-44s23.1,-70.4 35.3,-107c12.1,-36.6 22.1,-66.8 22.2,-67.2c0.1,-0.5 0.2,-0.9 0.4,-1c0.1,-0.2 0.3,-1 0.5,-1.8s4.2,-13 9,-27c4.7,-14 9.4,-28 10.4,-31l1.7,-5.5l45.5,-0.3l45.6,-0.4l5,15.9c2.8,8.7 9.2,28.9 14.3,44.8c5,16 11.1,35.1 13.5,42.5c2.4,7.4 11.4,35.8 20,63c8.6,27.2 17.6,55.6 20,63c2.4,7.4 9.6,30.2 16,50.5c6.5,20.4 12.5,39.5 13.5,42.5l1.7,5.5l16.7,0.3l16.6,0.2l-0.2,36.8l-0.3,36.7l-70.1,0.3l-70.2,0.2l-0.4,-4.2c-0.3,-2.4 -0.6,-19 -0.7,-37l-0.2,-32.8l7.3,-0.1c4,-0.1 10.3,-0.4 13.9,-0.8l6.7,-0.6l-3.3,-10.5c-1.8,-5.8 -5.6,-17.8 -8.4,-26.7l-5.2,-16.3l-111.7,0l-1.2,3.3c-3.9,10.4 -16.9,50.1 -16.7,50.4c0.2,0.2 5.5,0.3 11.8,0.4c6.3,0 12.4,0.3 13.7,0.6l2.2,0.5l0,73.8l-66.3,0c-36.5,0 -66.7,-0.3 -67,-0.7zm119.3,-41.3l0,-18l-35,0l0,-2.6c0,-1.4 4.9,-16.8 10.9,-34.2c6,-17.4 12.6,-37 14.7,-43.4l3.8,-11.8l142.1,0l6.8,21.3c3.8,11.6 10,30.8 13.8,42.4c3.8,11.7 6.9,22.8 6.9,24.8l0,3.5l-34,0l0,10.3c0,5.7 0.3,13.8 0.6,18l0.7,7.7l101.7,0l0,-36l-28.6,0l-42.3,-133.2c-23.3,-73.3 -46.7,-146.9 -51.9,-163.5l-9.6,-30.1l-9,-0.7c-5,-0.3 -19,-0.5 -31,-0.3l-21.9,0.3l-7.9,24c-4.4,13.2 -18.4,55.7 -31.3,94.5c-35,105.9 -55,166.8 -57,173.5c-1,3.3 -2,6.4 -2.3,7c-0.3,0.5 -2.6,7 -5.1,14.5l-4.6,13.5l-12.7,0.3l-12.8,0.3l0,8.8c0,4.8 0.3,12.9 0.6,17.9l0.7,9.2l93.7,0l0,-18z"/>
    <path id="svg_15" d="m240.70379,482.88049c0,-5.3 52.4,-163.1 54.9,-165.4c1.2,-1.1 3.6,-1.6 7.3,-1.6l5.6,0l2.5,6.3c1.3,3.4 4.6,13.2 7.2,21.7c2.6,8.5 13.2,42.4 23.6,75.2c10.4,32.9 18.9,61.4 18.9,63.3l0,3.5l-120,0l0,-3zm88,-16.7c-1,-3.2 -6.9,-21.8 -13,-41.3c-11.7,-37.1 -19.7,-60 -20.9,-60c-0.4,0 -2.2,5.5 -4.1,12.3c-1.8,6.7 -9.5,30.8 -17,53.5l-13.7,41.2l70.5,0l-1.8,-5.7z"/>
    <path id="svg_16" d="m278.70379,456.28049c0,-0.4 2.7,-8.8 5.9,-18.8c3.3,-10 6.9,-21.4 8.1,-25.3c1.2,-4 2.3,-7.3 2.5,-7.3c0.3,0 2.9,7.6 15.5,46.3l1.9,5.7l-17,0c-9.3,0 -16.9,-0.3 -16.9,-0.6z"/>
   </g>
   <g transform="matrix(0.276855 0 0 0.276855 0 0)" id="svg_17" fill="#a79a74">
    <path id="svg_18" d="m498.20379,1076.38049c-48.8,-4.2 -103.4,-16.4 -145.5,-32.5c-55.6,-21.4 -105.5,-50.1 -150,-86.5c-28.5,-23.2 -61.7,-56.7 -80.3,-80.7c-0.9,-1.3 -4.9,-6.3 -8.8,-11.3c-3.9,-4.9 -7.5,-9.8 -8.1,-11c-0.6,-1.1 -1.4,-2.2 -1.8,-2.5c-0.3,-0.3 -1.6,-2.1 -2.8,-4c-1.1,-2 -3.2,-4.9 -4.6,-6.5c-1.4,-1.7 -2.6,-3.4 -2.6,-3.8c0,-0.4 -0.5,-1.3 -1,-2c-2.1,-2.5 -7.9,-11.5 -11.1,-17.2c-1.8,-3.3 -3.5,-6.2 -3.8,-6.5c-2.9,-2.6 -23,-42.7 -31.7,-63c-23.4,-55.2 -38.2,-118.5 -41.3,-177c-0.9,-16 -0.6,-62.5 0.4,-73.5c2.7,-30.1 5.1,-45.9 11.1,-75c2.6,-12.3 3.1,-14 8.5,-33c7.1,-24.9 14.5,-45.4 24.8,-68.7c6.2,-14.2 17.2,-36.5 20.1,-40.8c0.9,-1.4 3.6,-6.1 6,-10.5s6.5,-11.2 9.2,-15.2c2.6,-4 4.8,-7.7 4.8,-8.3c0,-0.5 0.5,-1 1,-1c0.6,0 1,-0.5 1,-1.1c0,-0.9 5.6,-9.7 6.9,-10.9c0.3,-0.3 2,-2.5 3.6,-5c1.7,-2.5 5.6,-7.8 8.8,-11.8c3.1,-4 5.7,-7.6 5.7,-8c0,-0.4 1.3,-2.1 2.8,-3.8c1.5,-1.7 4.5,-5.3 6.7,-8s5.6,-6.7 7.5,-8.9c1.9,-2.2 5.1,-5.8 7,-8c4.6,-5.3 37.2,-38 43,-43c38.5,-34 81.1,-62.6 123.8,-83.1c36.1,-17.3 72.4,-30.2 109.2,-38.9c44.5,-10.4 79.8,-14.5 125.5,-14.5c37.2,0 64.3,2.6 100.9,9.5c99.6,18.9 190,64.7 265.7,134.8c23.9,22.1 36.5,35.8 60.2,65.7c5.1,6.4 8.6,11.3 16.8,23.5c5.2,7.7 9.6,14.2 9.9,14.5c0.6,0.6 7,11.1 10,16.5c1.3,2.2 4.5,8.1 7.3,13c9,16.2 17.6,33.7 25.2,52c0.7,1.7 1.8,4.4 2.5,6c3.4,8.1 6.3,15.5 8,20.5c1,3 2.9,8.4 4.3,12c1.3,3.6 2.5,6.8 2.5,7.3c0.1,0.4 0.6,2.4 1.2,4.5c1.1,3.6 2.5,8.9 7.6,28.2c1.4,5.2 2.8,10.6 3,12c0.2,1.4 0.6,3.5 0.9,4.7c0.3,1.3 0.6,2.5 0.6,2.8c0,0.2 0.7,3.3 1.5,6.7c0.9,3.5 1.7,7.7 1.9,9.3c0.5,4.8 1.6,11.9 2,13.5c0.4,1.3 1.4,9.6 3,24c0.2,1.9 0.7,7.3 1,12c0.4,4.7 1,12.6 1.5,17.5c0.8,8.8 0.5,59.8 -0.3,61.3c-0.3,0.4 -0.8,5.9 -1.2,12.2c-0.7,11.8 -0.9,14.2 -1.9,20.7c-0.3,2.1 -0.8,5.6 -1.1,7.8c-1.3,10.1 -2.6,17.9 -5.1,29.5c-1.4,6.9 -2.8,13.6 -3,15c-0.2,1.4 -1.7,7.9 -3.4,14.5s-3.3,12.9 -3.5,14c-0.4,1.7 -3.2,10.5 -5.3,16.5c-0.3,0.8 -0.6,2 -0.8,2.5c-2.6,9.1 -9.3,27.4 -12.1,32.7c-0.7,1.5 -1.3,2.9 -1.3,3c0.2,0.5 -1.3,4.3 -6,15.3c-8,18.6 -22.1,46.1 -29.3,57.2c-1.5,2.4 -2.7,4.5 -2.7,4.8c0,0.3 -2.7,4.6 -6,9.5s-6,9.1 -6,9.4c0,0.5 -8.5,12.9 -10.3,15.1c-0.4,0.6 -2.7,3.5 -5,6.6c-20.2,27 -31.1,39.4 -55.2,63.3c-50.2,49.8 -106.8,87.4 -173.4,115.2c-47.3,19.8 -95.2,31.8 -151.1,37.9c-20.4,2.2 -76.5,2.8 -97.5,1zm73,-20c59.1,-3 118.9,-16.8 173.5,-40.1c15.2,-6.4 46.9,-22.5 60,-30.3c27.5,-16.5 50,-32.7 75,-54.1c21.5,-18.3 48.5,-46 63.1,-64.5c3.5,-4.4 6.8,-8.5 7.4,-9.1c0.5,-0.6 4.4,-5.7 8.5,-11.3c4.1,-5.6 9.2,-12.5 11.3,-15.3c2.1,-2.8 7,-10.5 10.9,-17.2c3.9,-6.6 8.6,-14.3 10.3,-17.1c1.8,-2.7 3.9,-6.3 4.7,-8c0.8,-1.6 5.4,-10.5 10.1,-19.7c4.7,-9.3 8.3,-16.8 8,-16.8c-0.3,0 -0.1,-0.6 0.5,-1.2c0.5,-0.7 3.7,-8.3 7.1,-16.8c3.4,-8.5 6.6,-16.4 7.1,-17.5c0.9,-2.2 6.6,-18.4 7,-20c0.1,-0.5 0.4,-1.4 0.5,-2c0.5,-2.1 3.4,-12.3 5.6,-19.4c1.2,-4 2.3,-8.3 2.5,-9.5c0.1,-1.1 0.7,-3.4 1.3,-4.9c0.6,-1.5 1.3,-4.6 1.6,-6.7c0.2,-2.1 1,-6.1 1.6,-8.7c0.6,-2.6 1.2,-5.7 1.4,-6.8c0.1,-1.1 0.4,-2 0.5,-2c0.3,0 0.5,-1.3 1.4,-8c0.6,-4.2 1.3,-8.4 2.1,-12.5c0.3,-1.4 0.7,-4.7 1,-7.5c0.3,-2.7 0.7,-6.3 0.9,-8c0.3,-2.7 0.9,-8.3 2.1,-23.5c2.4,-28.5 2.4,-57 0,-80c-0.2,-2.5 -0.7,-7.2 -1,-10.5c-0.9,-9.2 -1.6,-14.7 -2.1,-17.7c-0.2,-1.5 -0.7,-4.7 -0.9,-7c-0.3,-2.4 -0.7,-5.4 -1,-6.8c-0.8,-5.3 -1.7,-10.3 -2.1,-12.4c-0.3,-1.1 -1.1,-5 -1.9,-8.6c-0.8,-3.6 -1.8,-8.3 -2.4,-10.5c-0.5,-2.2 -1.2,-5.3 -1.5,-7c-0.3,-1.6 -1.2,-5.4 -2,-8.2c-0.8,-2.9 -1.2,-5.3 -1,-5.3c0.3,0 0.2,-0.6 -0.3,-1.2c-0.4,-0.7 -0.8,-1.7 -1,-2.3c-0.7,-3.4 -3.5,-13.2 -4,-14.5c-0.3,-0.8 -0.7,-1.7 -0.8,-2c-0.8,-3.3 -6,-18.7 -6.5,-19.5c-0.4,-0.5 -1.3,-2.8 -1.9,-5c-1.3,-4 -1.5,-4.8 -4.5,-12c-0.9,-2.2 -1.6,-4.2 -1.6,-4.5c0,-0.3 -1.5,-3.8 -3.5,-7.8c-1.9,-4 -3.5,-7.5 -3.5,-7.8c0,-0.2 -1.5,-3.7 -3.4,-7.7s-3.5,-7.6 -3.6,-8.2c-0.1,-0.5 -1,-2.3 -2,-4c-1,-1.6 -3.9,-7 -6.4,-11.8c-2.5,-4.8 -5.4,-10.1 -6.6,-11.7c-1.1,-1.5 -2,-3.2 -2,-3.7c0,-0.4 -2,-3.9 -4.5,-7.6c-2.5,-3.8 -4.5,-7.1 -4.5,-7.3c0,-0.2 -1.5,-2.5 -3.2,-5.1c-1.8,-2.7 -3.7,-5.5 -4.3,-6.4c-12.5,-20.7 -40,-54.3 -65,-79.4c-38.8,-39.1 -81.2,-70.3 -129.6,-95.4c-112.1,-58 -241.1,-72.9 -364.4,-42c-82.8,20.8 -160.4,62.8 -223.9,121.3c-5.5,5 -10.4,9.6 -11,10.2c-0.6,0.7 -5.6,5.8 -11.1,11.5c-5.6,5.7 -13.2,14 -17,18.4c-3.9,4.4 -7.2,8.2 -7.5,8.5c-1.3,1.2 -6.7,8 -8.5,10.5c-1.1,1.6 -4.2,5.6 -6.8,8.9c-2.7,3.4 -5.3,6.9 -5.8,7.8c-1,1.8 -14.2,20.5 -15.9,22.5c-0.5,0.7 -1,1.7 -1,2.3c0,0.5 -0.4,1 -0.8,1c-0.5,0 -1.9,2.1 -3.2,4.8c-1.3,2.6 -3.6,6.6 -5.2,8.9c-1.5,2.3 -2.8,4.4 -2.8,4.7c0,0.4 -1.7,3.4 -3.8,6.9c-4.8,7.9 -17.2,32.4 -22.4,44.2c-16.3,37.1 -31.8,88.3 -36.2,119c-0.3,2.2 -1.5,10.1 -2.5,17.5c-5.4,37.2 -6.7,80.3 -3.6,117.5c4.5,53.8 19.3,112.8 40.3,161c8.4,19.3 28.9,59.1 32.7,63.5c0.7,0.8 2.1,3.1 3.2,5c4,7.6 19,29 31,44.4c43.9,56.2 97.4,102.1 158.9,136.1c67.8,37.4 148.7,60.4 222.8,63.1c9.4,0.4 17.2,0.8 17.4,0.9c0.4,0.4 24.9,-0.3 38.7,-1z"/>
    <path id="svg_19" d="m528.70379,724.38049l0,-20.5l9.3,-0.2c5,0 9.7,-0.2 10.2,-0.3c0.6,-0.2 3.1,-0.3 5.8,-0.4l4.7,-0.1l0,-127.7c0,-70.3 -0.3,-134.2 -0.7,-142l-0.6,-14.3l-28.7,0l0,-43l47.1,0.2l47.1,0.3l48.3,82.8c26.5,45.6 48.6,82.9 49,83c0.8,0.2 34,-54.6 74.9,-123.5l24.8,-41.6l13.6,-0.5c7.5,-0.2 28.6,-0.4 46.7,-0.3l33,0.1l0,42l-11.5,0c-8.3,0 -12.3,0.4 -14.5,1.5l-3,1.5l-0.3,140.6l-0.2,140.6l8.2,0.6c4.6,0.4 11.3,0.7 15.1,0.7l6.7,0l0,41l-106,0l0,-41l7.8,-0.1c9.9,-0.1 20.4,-0.8 20.8,-1.2c0.2,-0.2 0.3,-62.6 0.2,-138.6l-0.3,-138.3l-11.6,19.9c-6.4,10.9 -30,51.2 -52.4,89.6l-40.7,69.7l-9.7,-0.1c-5.3,-0.1 -10.7,-0.4 -12,-0.8c-1.8,-0.5 -7.6,-9.6 -25.8,-41.1c-26.2,-45.3 -61.8,-106.2 -72.7,-124.5l-7.1,-12l-0.3,137.9c-0.1,75.9 0,138.1 0.2,138.3c0.4,0.5 9.8,1 20.9,1.2l8.7,0.1l0,41l-105,0l0,-20.5zm-391.3,-80.4c-0.2,-1 -0.5,-10.4 -0.6,-20.9l-0.2,-19.1l12.8,-0.3l12.8,-0.3l4.7,-14c2.6,-7.7 4.8,-14.1 4.9,-14.2c0.1,-0.2 0.3,-0.7 0.4,-1.3c0.1,-0.5 0.3,-1.1 0.5,-1.2c0.1,-0.2 0.3,-1 0.5,-1.8s0.8,-2.8 1.4,-4.5c0.6,-1.6 8.3,-25 17.2,-52c8.9,-26.9 26.6,-80.7 39.4,-119.5c12.9,-38.8 26.9,-81.3 31.3,-94.5l7.9,-24l24.9,-0.3c13.7,-0.2 29,0 34,0.3l9,0.7l9.6,30.1c5.2,16.6 28.6,90.2 51.9,163.5l42.3,133.2l28.6,0l0,42l-54.2,-0.2l-54.3,-0.3l-0.3,-20.7l-0.3,-20.8l17,0c9.4,0 17.1,-0.2 17.1,-0.5s-3.1,-10.1 -6.9,-21.8c-3.8,-11.6 -10,-30.8 -13.8,-42.4l-6.8,-21.3l-136,0l-9.3,27.8c-5.1,15.2 -11.7,34.6 -14.6,43l-5.3,15.2l34.7,0l0,42l-49.9,0c-47.8,0 -49.9,-0.1 -50.4,-1.9zm220.3,-161.6c0,-0.3 -8.5,-27.4 -18.9,-60.3c-10.4,-32.8 -21,-66.7 -23.6,-75.2c-2.6,-8.5 -5.9,-18.3 -7.2,-21.7c-2.2,-5.4 -2.9,-6.3 -5.1,-6.3c-1.4,0 -3.4,0.7 -4.4,1.7c-1.4,1.2 -34,98 -53.8,159.6l-0.9,2.7l57,0c31.3,0 56.9,-0.2 56.9,-0.5z"/>
   </g>
  </g>
 </g>

</svg>